<svg width="1465" height="319" viewBox="0 0 1465 319" fill="none" xmlns="http://www.w3.org/2000/svg">
<path d="M82.082 22.5801V34.543H48.2441V123H34.4355V34.543H0.597656V22.5801H82.082ZM86.7988 103.518C86.7988 107.072 88.0977 109.875 90.6953 111.926C93.293 113.977 96.3691 115.002 99.9238 115.002C104.253 115.002 108.446 113.999 112.502 111.994C119.338 108.667 122.756 103.221 122.756 95.6562V85.7441C121.252 86.7012 119.315 87.4987 116.945 88.1367C114.576 88.7747 112.251 89.2305 109.973 89.5039L102.521 90.4609C98.0553 91.0534 94.7057 91.9876 92.4727 93.2637C88.6901 95.4056 86.7988 98.8236 86.7988 103.518ZM116.604 78.6348C119.429 78.2702 121.32 77.0853 122.277 75.0801C122.824 73.9863 123.098 72.4141 123.098 70.3633C123.098 66.1706 121.594 63.14 118.586 61.2715C115.624 59.3574 111.363 58.4004 105.803 58.4004C99.377 58.4004 94.8197 60.1322 92.1309 63.5957C90.627 65.5098 89.6471 68.3581 89.1914 72.1406H77.707C77.9349 63.1172 80.8516 56.8509 86.457 53.3418C92.1081 49.7871 98.6478 48.0098 106.076 48.0098C114.689 48.0098 121.685 49.6504 127.062 52.9316C132.395 56.2129 135.061 61.3171 135.061 68.2441V110.422C135.061 111.698 135.311 112.723 135.812 113.498C136.359 114.273 137.476 114.66 139.162 114.66C139.709 114.66 140.324 114.637 141.008 114.592C141.691 114.501 142.421 114.387 143.195 114.25V123.342C141.281 123.889 139.823 124.23 138.82 124.367C137.818 124.504 136.451 124.572 134.719 124.572C130.48 124.572 127.404 123.068 125.49 120.061C124.488 118.465 123.781 116.21 123.371 113.293C120.865 116.574 117.264 119.423 112.57 121.838C107.876 124.253 102.704 125.461 97.0527 125.461C90.2624 125.461 84.7025 123.41 80.373 119.309C76.0892 115.161 73.9473 109.989 73.9473 103.791C73.9473 97.0007 76.0664 91.737 80.3047 88C84.543 84.263 90.1029 81.9616 96.9844 81.0957L116.604 78.6348ZM233.771 53V123H198.771V53H181.271V123H146.271V35.5H216.271V53H233.771ZM303.771 105.5V123H268.771V105.5H251.271V0.5H286.271V35.5H303.771V53H286.271V105.5H303.771ZM336.111 123C326.591 123 321.691 114.32 321.691 101.86C321.691 82.4 333.731 53 357.811 53C369.011 53 368.451 58.32 372.091 58.32C376.711 58.32 377.691 53 384.271 53C387.911 53 389.171 55.1 389.171 58.18C389.171 63.5 385.531 67.84 382.451 75.96C377.691 86.18 379.231 91.78 385.391 91.78C390.151 91.78 393.651 89.12 396.451 84.64C398.551 81.28 404.151 85.48 402.751 88.14C395.891 101.16 388.191 123 372.651 123C362.991 123 358.931 114.18 360.611 102.56H360.051C354.451 113.9 346.051 123 336.111 123ZM350.111 94.02C357.391 94.02 362.291 86.74 362.291 80.86C362.291 76.24 359.491 73.44 355.011 73.44C347.731 73.44 343.111 80.3 343.111 86.46C343.111 91.22 345.771 94.02 350.111 94.02ZM402.209 49.7871H413.898V60.1777C417.362 55.8939 421.031 52.8177 424.904 50.9492C428.778 49.0807 433.085 48.1465 437.824 48.1465C448.215 48.1465 455.233 51.7695 458.879 59.0156C460.884 62.9805 461.887 68.6543 461.887 76.0371V123H449.377V76.8574C449.377 72.3913 448.716 68.791 447.395 66.0566C445.207 61.4993 441.242 59.2207 435.5 59.2207C432.583 59.2207 430.191 59.5169 428.322 60.1094C424.95 61.112 421.988 63.1172 419.436 66.125C417.385 68.5404 416.04 71.0469 415.402 73.6445C414.81 76.1966 414.514 79.8652 414.514 84.6504V123H402.209V49.7871ZM545.035 84.64C546.715 82.26 552.875 84.92 551.335 88.14C543.215 105.22 536.775 123 523.195 123C521.095 123 519.415 121.88 518.295 119.92C509.335 148.62 498.975 159.54 483.015 159.54C468.175 159.54 459.775 151.28 459.775 137.84C459.775 123.56 469.715 117.4 469.995 120.2C470.695 127.2 476.435 131.82 485.815 131.96C498.695 131.82 510.175 117.96 510.175 105.64C510.175 103.26 507.655 103.26 506.395 106.06C502.615 115.72 494.635 121.74 487.495 121.74C477.835 121.74 471.535 113.62 471.535 103.12C471.535 82.4 483.575 53 507.655 53C518.855 53 518.295 58.32 521.935 58.32C526.555 58.32 527.535 53 534.115 53C537.755 53 539.015 55.1 539.015 58.18C539.015 63.36 533.415 69.94 527.675 86.88C525.715 94.3 528.235 96.82 531.455 96.82C535.655 96.82 540.975 90.52 545.035 84.64ZM500.235 94.02C507.235 94.02 512.135 86.74 512.135 80.86C512.135 76.8 509.895 73.44 504.435 73.44C497.575 73.44 492.955 80.3 492.955 86.46C492.955 90.52 494.915 94.02 500.235 94.02ZM560.256 103.518C560.256 107.072 561.555 109.875 564.152 111.926C566.75 113.977 569.826 115.002 573.381 115.002C577.71 115.002 581.903 113.999 585.959 111.994C592.795 108.667 596.213 103.221 596.213 95.6562V85.7441C594.709 86.7012 592.772 87.4987 590.402 88.1367C588.033 88.7747 585.708 89.2305 583.43 89.5039L575.979 90.4609C571.512 91.0534 568.163 91.9876 565.93 93.2637C562.147 95.4056 560.256 98.8236 560.256 103.518ZM590.061 78.6348C592.886 78.2702 594.777 77.0853 595.734 75.0801C596.281 73.9863 596.555 72.4141 596.555 70.3633C596.555 66.1706 595.051 63.14 592.043 61.2715C589.081 59.3574 584.82 58.4004 579.26 58.4004C572.834 58.4004 568.277 60.1322 565.588 63.5957C564.084 65.5098 563.104 68.3581 562.648 72.1406H551.164C551.392 63.1172 554.309 56.8509 559.914 53.3418C565.565 49.7871 572.105 48.0098 579.533 48.0098C588.146 48.0098 595.142 49.6504 600.52 52.9316C605.852 56.2129 608.518 61.3171 608.518 68.2441V110.422C608.518 111.698 608.768 112.723 609.27 113.498C609.816 114.273 610.933 114.66 612.619 114.66C613.166 114.66 613.781 114.637 614.465 114.592C615.148 114.501 615.878 114.387 616.652 114.25V123.342C614.738 123.889 613.28 124.23 612.277 124.367C611.275 124.504 609.908 124.572 608.176 124.572C603.938 124.572 600.861 123.068 598.947 120.061C597.945 118.465 597.238 116.21 596.828 113.293C594.322 116.574 590.721 119.423 586.027 121.838C581.333 124.253 576.161 125.461 570.51 125.461C563.719 125.461 558.16 123.41 553.83 119.309C549.546 115.161 547.404 109.989 547.404 103.791C547.404 97.0007 549.523 91.737 553.762 88C558 84.263 563.56 81.9616 570.441 81.0957L590.061 78.6348ZM628.752 49.7871H640.441V60.1777C643.905 55.8939 647.574 52.8177 651.447 50.9492C655.321 49.0807 659.628 48.1465 664.367 48.1465C674.758 48.1465 681.776 51.7695 685.422 59.0156C687.427 62.9805 688.43 68.6543 688.43 76.0371V123H675.92V76.8574C675.92 72.3913 675.259 68.791 673.938 66.0566C671.75 61.4993 667.785 59.2207 662.043 59.2207C659.126 59.2207 656.734 59.5169 654.865 60.1094C651.493 61.112 648.531 63.1172 645.979 66.125C643.928 68.5404 642.583 71.0469 641.945 73.6445C641.353 76.1966 641.057 79.8652 641.057 84.6504V123H628.752V49.7871ZM789.683 86.46C790.15 86.74 790.476 87.16 790.663 87.72C790.85 88.28 790.756 88.7933 790.383 89.26C788.236 92.9933 786.276 96.4467 784.503 99.62C782.73 102.7 781.096 105.267 779.603 107.32C779.51 107.507 779.136 108.113 778.483 109.14C777.923 110.073 777.176 111.193 776.243 112.5C775.403 113.713 774.423 114.973 773.303 116.28C772.183 117.587 771.11 118.707 770.083 119.64C769.056 120.573 767.89 121.413 766.583 122.16C765.276 122.907 763.83 123.513 762.243 123.98C760.656 124.447 758.976 124.493 757.203 124.12C755.43 123.84 753.89 123.327 752.583 122.58C751.276 121.74 750.156 120.853 749.223 119.92C748.383 118.987 747.636 118.053 746.983 117.12C745.863 115.533 745.07 114.133 744.603 112.92C743.483 110.493 742.55 107.507 741.803 103.96C741.056 100.32 740.683 96.82 740.683 93.46C740.683 91.78 740.73 90.1933 740.823 88.7C740.916 87.1133 741.056 85.76 741.243 84.64C741.43 83.52 741.57 82.6333 741.663 81.98C741.85 81.3267 741.943 81 741.943 81C742.13 79.88 742.41 78.6667 742.783 77.36C743.063 76.24 743.39 74.98 743.763 73.58C744.136 72.0867 744.556 70.5467 745.023 68.96C746.05 65.6933 747.123 62.4267 748.243 59.16C749.363 55.8 750.39 53.0467 751.323 50.9C751.696 49.9667 752.256 48.6133 753.003 46.84C753.75 45.0667 754.636 43.1533 755.663 41.1C756.783 38.9533 758.043 36.76 759.443 34.52C760.843 32.1867 762.43 29.9933 764.203 27.94C765.883 25.8867 767.796 24.1133 769.943 22.62C772.09 21.0333 774.236 20.1467 776.383 19.96C777.69 19.7733 779.183 19.96 780.863 20.52C782.636 21.08 784.083 22.34 785.203 24.3C786.043 25.8867 786.556 27.52 786.743 29.2C786.93 32.4667 786.556 35.36 785.623 37.88C784.69 40.4 783.99 42.1733 783.523 43.2C782.963 44.32 782.216 45.72 781.283 47.4C780.443 48.9867 779.556 50.5267 778.623 52.02C777.69 53.42 776.896 54.6333 776.243 55.66C775.59 56.5933 775.263 57.06 775.263 57.06C775.263 57.06 774.89 57.62 774.143 58.74C773.396 59.7667 772.51 60.98 771.483 62.38C770.456 63.78 769.383 65.2267 768.263 66.72C767.143 68.2133 766.21 69.4267 765.463 70.36C764.903 71.1067 764.016 72.18 762.803 73.58C761.683 74.98 760.376 76.4733 758.883 78.06C757.483 79.5533 755.99 81 754.403 82.4C752.91 83.7067 751.603 84.5933 750.483 85.06C750.296 86.0867 750.11 87.3467 749.923 88.84C749.83 90.24 749.83 91.8267 749.923 93.6C749.923 96.5867 750.25 99.62 750.903 102.7C751.556 105.78 752.303 108.16 753.143 109.84C753.516 110.587 754.03 111.52 754.683 112.64C755.336 113.667 756.13 114.553 757.063 115.3C757.996 116.047 759.023 116.42 760.143 116.42C761.356 116.42 762.896 115.953 764.763 115.02C765.323 114.74 766.163 114.133 767.283 113.2C768.403 112.267 769.85 110.773 771.623 108.72C773.396 106.573 775.543 103.773 778.063 100.32C780.583 96.8667 783.523 92.48 786.883 87.16C787.163 86.6933 787.583 86.3667 788.143 86.18C788.703 85.9933 789.216 86.0867 789.683 86.46ZM767.703 35.5C766.676 37.3667 765.743 39.28 764.903 41.24C764.063 43.2 763.27 45.0667 762.523 46.84C761.87 48.52 761.263 50.1067 760.703 51.6C760.236 53.0933 759.816 54.3067 759.443 55.24C758.696 57.2 757.763 59.6733 756.643 62.66C755.616 65.6467 754.683 68.6333 753.843 71.62C754.87 70.0333 755.803 68.6333 756.643 67.42C757.483 66.1133 758.136 65.0867 758.603 64.34C759.35 63.4067 760.19 62.24 761.123 60.84C762.15 59.44 763.176 58.0867 764.203 56.78C765.323 55.1933 766.49 53.6067 767.703 52.02C768.823 50.34 769.896 48.66 770.923 46.98C771.763 45.58 772.603 44.1333 773.443 42.64C774.376 41.1467 775.076 39.8867 775.543 38.86C776.01 37.9267 776.663 36.62 777.503 34.94C778.436 33.26 779.183 31.5333 779.743 29.76C780.303 27.9867 780.396 26.54 780.023 25.42C779.276 23.8333 778.436 23.2267 777.503 23.6C776.663 23.9733 775.636 24.7667 774.423 25.98C773.21 27.1 772.043 28.5 770.923 30.18C769.803 31.86 768.73 33.6333 767.703 35.5ZM798.967 103.518C798.967 107.072 800.266 109.875 802.863 111.926C805.461 113.977 808.537 115.002 812.092 115.002C816.421 115.002 820.614 113.999 824.67 111.994C831.506 108.667 834.924 103.221 834.924 95.6562V85.7441C833.42 86.7012 831.483 87.4987 829.113 88.1367C826.743 88.7747 824.419 89.2305 822.141 89.5039L814.689 90.4609C810.223 91.0534 806.874 91.9876 804.641 93.2637C800.858 95.4056 798.967 98.8236 798.967 103.518ZM828.771 78.6348C831.597 78.2702 833.488 77.0853 834.445 75.0801C834.992 73.9863 835.266 72.4141 835.266 70.3633C835.266 66.1706 833.762 63.14 830.754 61.2715C827.792 59.3574 823.531 58.4004 817.971 58.4004C811.545 58.4004 806.988 60.1322 804.299 63.5957C802.795 65.5098 801.815 68.3581 801.359 72.1406H789.875C790.103 63.1172 793.02 56.8509 798.625 53.3418C804.276 49.7871 810.816 48.0098 818.244 48.0098C826.857 48.0098 833.853 49.6504 839.23 52.9316C844.562 56.2129 847.229 61.3171 847.229 68.2441V110.422C847.229 111.698 847.479 112.723 847.98 113.498C848.527 114.273 849.644 114.66 851.33 114.66C851.877 114.66 852.492 114.637 853.176 114.592C853.859 114.501 854.589 114.387 855.363 114.25V123.342C853.449 123.889 851.991 124.23 850.988 124.367C849.986 124.504 848.618 124.572 846.887 124.572C842.648 124.572 839.572 123.068 837.658 120.061C836.656 118.465 835.949 116.21 835.539 113.293C833.033 116.574 829.432 119.423 824.738 121.838C820.044 124.253 814.872 125.461 809.221 125.461C802.43 125.461 796.87 123.41 792.541 119.309C788.257 115.161 786.115 109.989 786.115 103.791C786.115 97.0007 788.234 91.737 792.473 88C796.711 84.263 802.271 81.9616 809.152 81.0957L828.771 78.6348ZM867.189 22.5801H879.016V80.8906L910.598 49.7871H926.32L898.293 77.1992L927.893 123H912.17L889.338 86.0859L879.016 95.5195V123H867.189V22.5801ZM944.777 100.031C945.142 104.133 946.167 107.277 947.854 109.465C950.952 113.43 956.33 115.412 963.986 115.412C968.544 115.412 972.554 114.432 976.018 112.473C979.481 110.467 981.213 107.391 981.213 103.244C981.213 100.1 979.823 97.707 977.043 96.0664C975.266 95.0638 971.757 93.9017 966.516 92.5801L956.74 90.1191C950.497 88.5697 945.894 86.8379 942.932 84.9238C937.645 81.597 935.002 76.9941 935.002 71.1152C935.002 64.1882 937.486 58.5827 942.453 54.2988C947.466 50.015 954.188 47.873 962.619 47.873C973.648 47.873 981.6 51.1087 986.477 57.5801C989.53 61.6816 991.011 66.1022 990.92 70.8418H979.299C979.071 68.0618 978.091 65.5326 976.359 63.2539C973.534 60.0182 968.635 58.4004 961.662 58.4004C957.014 58.4004 953.482 59.2891 951.066 61.0664C948.697 62.8438 947.512 65.1908 947.512 68.1074C947.512 71.2975 949.084 73.8496 952.229 75.7637C954.051 76.903 956.74 77.9056 960.295 78.7715L968.43 80.7539C977.271 82.8958 983.195 84.9694 986.203 86.9746C990.988 90.1191 993.381 95.0638 993.381 101.809C993.381 108.326 990.897 113.954 985.93 118.693C981.008 123.433 973.488 125.803 963.371 125.803C952.479 125.803 944.755 123.342 940.197 118.42C935.686 113.452 933.27 107.323 932.951 100.031H944.777ZM1016.9 103.518C1016.9 107.072 1018.2 109.875 1020.79 111.926C1023.39 113.977 1026.47 115.002 1030.02 115.002C1034.35 115.002 1038.54 113.999 1042.6 111.994C1049.44 108.667 1052.85 103.221 1052.85 95.6562V85.7441C1051.35 86.7012 1049.41 87.4987 1047.04 88.1367C1044.67 88.7747 1042.35 89.2305 1040.07 89.5039L1032.62 90.4609C1028.15 91.0534 1024.8 91.9876 1022.57 93.2637C1018.79 95.4056 1016.9 98.8236 1016.9 103.518ZM1046.7 78.6348C1049.53 78.2702 1051.42 77.0853 1052.38 75.0801C1052.92 73.9863 1053.2 72.4141 1053.2 70.3633C1053.2 66.1706 1051.69 63.14 1048.68 61.2715C1045.72 59.3574 1041.46 58.4004 1035.9 58.4004C1029.47 58.4004 1024.92 60.1322 1022.23 63.5957C1020.72 65.5098 1019.74 68.3581 1019.29 72.1406H1007.8C1008.03 63.1172 1010.95 56.8509 1016.55 53.3418C1022.21 49.7871 1028.75 48.0098 1036.17 48.0098C1044.79 48.0098 1051.78 49.6504 1057.16 52.9316C1062.49 56.2129 1065.16 61.3171 1065.16 68.2441V110.422C1065.16 111.698 1065.41 112.723 1065.91 113.498C1066.46 114.273 1067.57 114.66 1069.26 114.66C1069.81 114.66 1070.42 114.637 1071.11 114.592C1071.79 114.501 1072.52 114.387 1073.29 114.25V123.342C1071.38 123.889 1069.92 124.23 1068.92 124.367C1067.92 124.504 1066.55 124.572 1064.82 124.572C1060.58 124.572 1057.5 123.068 1055.59 120.061C1054.59 118.465 1053.88 116.21 1053.47 113.293C1050.96 116.574 1047.36 119.423 1042.67 121.838C1037.97 124.253 1032.8 125.461 1027.15 125.461C1020.36 125.461 1014.8 123.41 1010.47 119.309C1006.19 115.161 1004.04 109.989 1004.04 103.791C1004.04 97.0007 1006.16 91.737 1010.4 88C1014.64 84.263 1020.2 81.9616 1027.08 81.0957L1046.7 78.6348ZM1181.37 53H1163.87V123H1128.87V53H1111.37V123H1076.37V35.5H1198.87V53H1216.37V123H1181.37V53ZM1252.33 103.518C1252.33 107.072 1253.62 109.875 1256.22 111.926C1258.82 113.977 1261.9 115.002 1265.45 115.002C1269.78 115.002 1273.97 113.999 1278.03 111.994C1284.87 108.667 1288.28 103.221 1288.28 95.6562V85.7441C1286.78 86.7012 1284.84 87.4987 1282.47 88.1367C1280.1 88.7747 1277.78 89.2305 1275.5 89.5039L1268.05 90.4609C1263.58 91.0534 1260.23 91.9876 1258 93.2637C1254.22 95.4056 1252.33 98.8236 1252.33 103.518ZM1282.13 78.6348C1284.96 78.2702 1286.85 77.0853 1287.8 75.0801C1288.35 73.9863 1288.62 72.4141 1288.62 70.3633C1288.62 66.1706 1287.12 63.14 1284.11 61.2715C1281.15 59.3574 1276.89 58.4004 1271.33 58.4004C1264.9 58.4004 1260.35 60.1322 1257.66 63.5957C1256.15 65.5098 1255.17 68.3581 1254.72 72.1406H1243.23C1243.46 63.1172 1246.38 56.8509 1251.98 53.3418C1257.64 49.7871 1264.18 48.0098 1271.6 48.0098C1280.22 48.0098 1287.21 49.6504 1292.59 52.9316C1297.92 56.2129 1300.59 61.3171 1300.59 68.2441V110.422C1300.59 111.698 1300.84 112.723 1301.34 113.498C1301.89 114.273 1303 114.66 1304.69 114.66C1305.24 114.66 1305.85 114.637 1306.54 114.592C1307.22 114.501 1307.95 114.387 1308.72 114.25V123.342C1306.81 123.889 1305.35 124.23 1304.35 124.367C1303.35 124.504 1301.98 124.572 1300.25 124.572C1296.01 124.572 1292.93 123.068 1291.02 120.061C1290.01 118.465 1289.31 116.21 1288.9 113.293C1286.39 116.574 1282.79 119.423 1278.1 121.838C1273.4 124.253 1268.23 125.461 1262.58 125.461C1255.79 125.461 1250.23 123.41 1245.9 119.309C1241.62 115.161 1239.47 109.989 1239.47 103.791C1239.47 97.0007 1241.59 91.737 1245.83 88C1250.07 84.263 1255.63 81.9616 1262.51 81.0957L1282.13 78.6348ZM1320.82 49.7871H1332.51V60.1777C1335.98 55.8939 1339.64 52.8177 1343.52 50.9492C1347.39 49.0807 1351.7 48.1465 1356.44 48.1465C1366.83 48.1465 1373.85 51.7695 1377.49 59.0156C1379.5 62.9805 1380.5 68.6543 1380.5 76.0371V123H1367.99V76.8574C1367.99 72.3913 1367.33 68.791 1366.01 66.0566C1363.82 61.4993 1359.86 59.2207 1354.11 59.2207C1351.2 59.2207 1348.8 59.5169 1346.94 60.1094C1343.56 61.112 1340.6 63.1172 1338.05 66.125C1336 68.5404 1334.65 71.0469 1334.02 73.6445C1333.42 76.1966 1333.13 79.8652 1333.13 84.6504V123H1320.82V49.7871ZM1408.19 103.518C1408.19 107.072 1409.48 109.875 1412.08 111.926C1414.68 113.977 1417.76 115.002 1421.31 115.002C1425.64 115.002 1429.83 113.999 1433.89 111.994C1440.72 108.667 1444.14 103.221 1444.14 95.6562V85.7441C1442.64 86.7012 1440.7 87.4987 1438.33 88.1367C1435.96 88.7747 1433.64 89.2305 1431.36 89.5039L1423.91 90.4609C1419.44 91.0534 1416.09 91.9876 1413.86 93.2637C1410.08 95.4056 1408.19 98.8236 1408.19 103.518ZM1437.99 78.6348C1440.82 78.2702 1442.71 77.0853 1443.66 75.0801C1444.21 73.9863 1444.48 72.4141 1444.48 70.3633C1444.48 66.1706 1442.98 63.14 1439.97 61.2715C1437.01 59.3574 1432.75 58.4004 1427.19 58.4004C1420.76 58.4004 1416.21 60.1322 1413.52 63.5957C1412.01 65.5098 1411.03 68.3581 1410.58 72.1406H1399.09C1399.32 63.1172 1402.24 56.8509 1407.84 53.3418C1413.49 49.7871 1420.03 48.0098 1427.46 48.0098C1436.08 48.0098 1443.07 49.6504 1448.45 52.9316C1453.78 56.2129 1456.45 61.3171 1456.45 68.2441V110.422C1456.45 111.698 1456.7 112.723 1457.2 113.498C1457.75 114.273 1458.86 114.66 1460.55 114.66C1461.1 114.66 1461.71 114.637 1462.39 114.592C1463.08 114.501 1463.81 114.387 1464.58 114.25V123.342C1462.67 123.889 1461.21 124.23 1460.21 124.367C1459.2 124.504 1457.84 124.572 1456.11 124.572C1451.87 124.572 1448.79 123.068 1446.88 120.061C1445.87 118.465 1445.17 116.21 1444.76 113.293C1442.25 116.574 1438.65 119.423 1433.96 121.838C1429.26 124.253 1424.09 125.461 1418.44 125.461C1411.65 125.461 1406.09 123.41 1401.76 119.309C1397.48 115.161 1395.33 109.989 1395.33 103.791C1395.33 97.0007 1397.45 91.737 1401.69 88C1405.93 84.263 1411.49 81.9616 1418.37 81.0957L1437.99 78.6348ZM362.492 242.787H374.66V253.178C377.577 249.577 380.22 246.957 382.59 245.316C386.646 242.536 391.249 241.146 396.398 241.146C402.232 241.146 406.926 242.582 410.48 245.453C412.486 247.094 414.309 249.509 415.949 252.699C418.684 248.78 421.896 245.886 425.588 244.018C429.279 242.104 433.426 241.146 438.029 241.146C447.873 241.146 454.572 244.701 458.127 251.811C460.041 255.639 460.998 260.788 460.998 267.26V316H448.215V265.141C448.215 260.264 446.984 256.915 444.523 255.092C442.108 253.269 439.146 252.357 435.637 252.357C430.806 252.357 426.636 253.975 423.127 257.211C419.663 260.447 417.932 265.847 417.932 273.412V316H405.422V268.217C405.422 263.249 404.829 259.626 403.645 257.348C401.776 253.93 398.29 252.221 393.186 252.221C388.537 252.221 384.299 254.021 380.471 257.621C376.688 261.221 374.797 267.738 374.797 277.172V316H362.492V242.787ZM505.09 263.5H522.59V246H505.09V263.5ZM557.59 246V281H505.09V298.5H557.59V316H487.59V298.5H470.09V246H487.59V228.5H540.09V246H557.59ZM584.113 242.787H595.803V253.178C599.266 248.894 602.935 245.818 606.809 243.949C610.682 242.081 614.989 241.146 619.729 241.146C630.119 241.146 637.137 244.77 640.783 252.016C642.788 255.98 643.791 261.654 643.791 269.037V316H631.281V269.857C631.281 265.391 630.62 261.791 629.299 259.057C627.111 254.499 623.146 252.221 617.404 252.221C614.488 252.221 612.095 252.517 610.227 253.109C606.854 254.112 603.892 256.117 601.34 259.125C599.289 261.54 597.945 264.047 597.307 266.645C596.714 269.197 596.418 272.865 596.418 277.65V316H584.113V242.787ZM671.477 296.518C671.477 300.072 672.775 302.875 675.373 304.926C677.971 306.977 681.047 308.002 684.602 308.002C688.931 308.002 693.124 306.999 697.18 304.994C704.016 301.667 707.434 296.221 707.434 288.656V278.744C705.93 279.701 703.993 280.499 701.623 281.137C699.253 281.775 696.929 282.23 694.65 282.504L687.199 283.461C682.733 284.053 679.383 284.988 677.15 286.264C673.368 288.406 671.477 291.824 671.477 296.518ZM701.281 271.635C704.107 271.27 705.998 270.085 706.955 268.08C707.502 266.986 707.775 265.414 707.775 263.363C707.775 259.171 706.271 256.14 703.264 254.271C700.301 252.357 696.04 251.4 690.48 251.4C684.055 251.4 679.497 253.132 676.809 256.596C675.305 258.51 674.325 261.358 673.869 265.141H662.385C662.613 256.117 665.529 249.851 671.135 246.342C676.786 242.787 683.326 241.01 690.754 241.01C699.367 241.01 706.363 242.65 711.74 245.932C717.072 249.213 719.738 254.317 719.738 261.244V303.422C719.738 304.698 719.989 305.723 720.49 306.498C721.037 307.273 722.154 307.66 723.84 307.66C724.387 307.66 725.002 307.637 725.686 307.592C726.369 307.501 727.098 307.387 727.873 307.25V316.342C725.959 316.889 724.501 317.23 723.498 317.367C722.495 317.504 721.128 317.572 719.396 317.572C715.158 317.572 712.082 316.068 710.168 313.061C709.165 311.465 708.459 309.21 708.049 306.293C705.542 309.574 701.942 312.423 697.248 314.838C692.554 317.253 687.382 318.461 681.73 318.461C674.94 318.461 669.38 316.41 665.051 312.309C660.767 308.161 658.625 302.989 658.625 296.791C658.625 290.001 660.744 284.737 664.982 281C669.221 277.263 674.781 274.962 681.662 274.096L701.281 271.635ZM739.973 242.787H751.662V253.178C755.126 248.894 758.794 245.818 762.668 243.949C766.542 242.081 770.848 241.146 775.588 241.146C785.979 241.146 792.997 244.77 796.643 252.016C798.648 255.98 799.65 261.654 799.65 269.037V316H787.141V269.857C787.141 265.391 786.48 261.791 785.158 259.057C782.971 254.499 779.006 252.221 773.264 252.221C770.347 252.221 767.954 252.517 766.086 253.109C762.714 254.112 759.751 256.117 757.199 259.125C755.148 261.54 753.804 264.047 753.166 266.645C752.574 269.197 752.277 272.865 752.277 277.65V316H739.973V242.787ZM820.363 222.348H832.805V242.787H844.494V252.836H832.805V300.619C832.805 303.171 833.671 304.88 835.402 305.746C836.359 306.247 837.954 306.498 840.188 306.498C840.78 306.498 841.418 306.498 842.102 306.498C842.785 306.452 843.583 306.384 844.494 306.293V316C843.081 316.41 841.6 316.706 840.051 316.889C838.547 317.071 836.906 317.162 835.129 317.162C829.387 317.162 825.49 315.704 823.439 312.787C821.389 309.825 820.363 305.997 820.363 301.303V252.836H810.451V242.787H820.363V222.348ZM856.867 243.129H869.377V316H856.867V243.129ZM856.867 215.58H869.377V229.525H856.867V215.58ZM888.039 242.787H900.207V253.178C903.124 249.577 905.767 246.957 908.137 245.316C912.193 242.536 916.796 241.146 921.945 241.146C927.779 241.146 932.473 242.582 936.027 245.453C938.033 247.094 939.855 249.509 941.496 252.699C944.23 248.78 947.443 245.886 951.135 244.018C954.826 242.104 958.973 241.146 963.576 241.146C973.42 241.146 980.119 244.701 983.674 251.811C985.588 255.639 986.545 260.788 986.545 267.26V316H973.762V265.141C973.762 260.264 972.531 256.915 970.07 255.092C967.655 253.269 964.693 252.357 961.184 252.357C956.353 252.357 952.183 253.975 948.674 257.211C945.21 260.447 943.479 265.847 943.479 273.412V316H930.969V268.217C930.969 263.249 930.376 259.626 929.191 257.348C927.323 253.93 923.837 252.221 918.732 252.221C914.084 252.221 909.846 254.021 906.018 257.621C902.235 261.221 900.344 267.738 900.344 277.172V316H888.039V242.787ZM1016.96 242.787V291.391C1016.96 295.128 1017.56 298.181 1018.74 300.551C1020.93 304.926 1025.01 307.113 1030.98 307.113C1039.55 307.113 1045.38 303.285 1048.48 295.629C1050.16 291.527 1051.01 285.899 1051.01 278.744V242.787H1063.31V316H1051.69L1051.83 305.199C1050.23 307.979 1048.25 310.326 1045.88 312.24C1041.19 316.068 1035.49 317.982 1028.79 317.982C1018.35 317.982 1011.25 314.496 1007.46 307.523C1005.41 303.786 1004.39 298.796 1004.39 292.553V242.787H1016.96ZM1089.77 215.58H1103.64V248.598L1100.29 292.074H1093.32L1089.77 248.598V215.58ZM1089.77 301.781H1103.37V316H1089.77V301.781Z" fill="#FBFF24"/>
</svg>
